<svg width="54" height="54" viewBox="0 0 54 54" fill="none" xmlns="http://www.w3.org/2000/svg">
<path d="M39.5 13.1111C39.5 15.3087 38.7669 17.4569 37.3934 19.2841C36.0199 21.1113 34.0676 22.5355 31.7835 23.3764C29.4995 24.2174 26.9861 24.4375 24.5614 24.0087C22.1366 23.58 19.9093 22.5218 18.1612 20.9679C16.413 19.4139 15.2225 17.4341 14.7402 15.2788C14.2579 13.1234 14.5054 10.8894 15.4515 8.85907C16.3976 6.82878 17.9998 5.09346 20.0554 3.87256C22.111 2.65166 24.5277 2 27 2C30.3152 2 33.4946 3.17063 35.8388 5.25437C38.183 7.33811 39.5 10.1643 39.5 13.1111ZM36.375 35.3333H17.625C13.481 35.3333 9.50671 36.7966 6.57646 39.4013C3.6462 42.006 2 45.5387 2 49.2222C2 49.9589 2.32924 50.6655 2.91529 51.1864C3.50134 51.7073 4.2962 52 5.125 52H48.875C49.7038 52 50.4987 51.7073 51.0847 51.1864C51.6708 50.6655 52 49.9589 52 49.2222C52 45.5387 50.3538 42.006 47.4235 39.4013C44.4933 36.7966 40.519 35.3333 36.375 35.3333Z" stroke="white" stroke-width="4" stroke-linecap="round" stroke-linejoin="round"/>
</svg>
