<svg width="37" height="37" viewBox="0 0 37 37" fill="none" xmlns="http://www.w3.org/2000/svg">
<circle cx="18.5" cy="18.5" r="18.5" fill="white"/>
<path fill-rule="evenodd" clip-rule="evenodd" d="M6.75 18C6.75 17.4822 7.16973 17.0625 7.6875 17.0625H28.3125C28.8303 17.0625 29.25 17.4822 29.25 18C29.25 18.5178 28.8303 18.9375 28.3125 18.9375H7.6875C7.16973 18.9375 6.75 18.5178 6.75 18Z" fill="#29B42F"/>
<path fill-rule="evenodd" clip-rule="evenodd" d="M19.2121 8.89959C19.5782 8.53347 20.1718 8.53347 20.5379 8.89959L28.9754 17.3371C29.3415 17.7032 29.3415 18.2968 28.9754 18.6629L20.5379 27.1004C20.1718 27.4665 19.5782 27.4665 19.2121 27.1004C18.846 26.7343 18.846 26.1407 19.2121 25.7746L26.9867 18L19.2121 10.2254C18.846 9.8593 18.846 9.2657 19.2121 8.89959Z" fill="#29B42F"/>
<path fill-rule="evenodd" clip-rule="evenodd" d="M6.75 18C6.75 17.4822 7.16973 17.0625 7.6875 17.0625H28.3125C28.8303 17.0625 29.25 17.4822 29.25 18C29.25 18.5178 28.8303 18.9375 28.3125 18.9375H7.6875C7.16973 18.9375 6.75 18.5178 6.75 18Z" stroke="#29B42F" stroke-linecap="round" stroke-linejoin="round"/>
<path fill-rule="evenodd" clip-rule="evenodd" d="M19.2121 8.89959C19.5782 8.53347 20.1718 8.53347 20.5379 8.89959L28.9754 17.3371C29.3415 17.7032 29.3415 18.2968 28.9754 18.6629L20.5379 27.1004C20.1718 27.4665 19.5782 27.4665 19.2121 27.1004C18.846 26.7343 18.846 26.1407 19.2121 25.7746L26.9867 18L19.2121 10.2254C18.846 9.8593 18.846 9.2657 19.2121 8.89959Z" stroke="#29B42F" stroke-linecap="round" stroke-linejoin="round"/>
</svg>
