<svg width="60" height="60" viewBox="0 0 60 60" fill="none" xmlns="http://www.w3.org/2000/svg">
<path fill-rule="evenodd" clip-rule="evenodd" d="M29.1176 5.84559C29.6691 5.55147 30.3309 5.55147 30.8824 5.84559L59.0074 20.8456C59.6183 21.1715 60 21.8075 60 22.5C60 23.1925 59.6183 23.8285 59.0074 24.1544L30.8824 39.1544C30.3309 39.4485 29.6691 39.4485 29.1176 39.1544L0.992647 24.1544C0.381653 23.8285 0 23.1925 0 22.5C0 21.8075 0.381653 21.1715 0.992647 20.8456L29.1176 5.84559ZM5.85937 22.5L30 35.375L54.1406 22.5L30 9.625L5.85937 22.5Z" fill="#1F1C21"/>
<path fill-rule="evenodd" clip-rule="evenodd" d="M28.3455 21.6176C28.8328 20.7039 29.9686 20.3582 30.8823 20.8455L44.9448 28.3455C45.5558 28.6714 45.9374 29.3075 45.9374 29.9999V56.2499C45.9374 57.2854 45.0979 58.1249 44.0624 58.1249C43.0269 58.1249 42.1874 57.2854 42.1874 56.2499V31.1249L29.1176 24.1543C28.2039 23.667 27.8582 22.5313 28.3455 21.6176Z" fill="#1F1C21"/>
<path fill-rule="evenodd" clip-rule="evenodd" d="M8.43752 24.1173C9.47305 24.1173 10.3125 24.9567 10.3125 25.9923V38.7656L10.3166 38.771C11.7071 40.6389 17.8725 47.8126 30 47.8126C42.1275 47.8126 48.293 40.6389 49.6835 38.7711L49.6875 38.7657V25.9923C49.6875 24.9567 50.527 24.1173 51.5625 24.1173C52.598 24.1173 53.4375 24.9567 53.4375 25.9923V38.7892L53.4375 38.7971C53.4341 39.5995 53.1702 40.3789 52.6857 41.0182C50.9255 43.3795 43.779 51.5626 30 51.5626C16.2209 51.5626 9.07446 43.3794 7.31435 41.0182C6.82983 40.3789 6.56592 39.5995 6.56253 38.7971L6.5625 38.7892L6.56252 25.9923C6.56252 24.9567 7.40198 24.1173 8.43752 24.1173Z" fill="#1F1C21"/>
</svg>
