<svg width="50" height="48" viewBox="0 0 50 48" fill="none" xmlns="http://www.w3.org/2000/svg">
<path fill-rule="evenodd" clip-rule="evenodd" d="M2.5 8.125C3.53553 8.125 4.375 8.96447 4.375 10V28.75C4.375 29.7855 3.53553 30.625 2.5 30.625C1.46447 30.625 0.625 29.7855 0.625 28.75V10C0.625 8.96447 1.46447 8.125 2.5 8.125Z" fill="white"/>
<path fill-rule="evenodd" clip-rule="evenodd" d="M25 38.1287C21.8769 38.1287 18.8031 38.9078 16.057 40.3956C13.311 41.8833 10.9795 44.0327 9.27382 46.6489C8.70826 47.5163 7.54657 47.7611 6.67912 47.1955C5.81167 46.63 5.56694 45.4683 6.1325 44.6008C8.17894 41.462 10.9761 38.8833 14.2707 37.0984C17.5652 35.3135 21.253 34.3787 25 34.3787C28.747 34.3787 32.4348 35.3135 35.7294 37.0984C39.0239 38.8833 41.8211 41.462 43.8676 44.6008C44.4331 45.4683 44.1884 46.63 43.3209 47.1955C42.4535 47.7611 41.2918 47.5163 40.7263 46.6489C39.0205 44.0327 36.6891 41.8833 33.943 40.3956C31.197 38.9078 28.1232 38.1287 25 38.1287Z" fill="white"/>
<path fill-rule="evenodd" clip-rule="evenodd" d="M24.4071 0.721219C24.7919 0.592927 25.2081 0.592927 25.5929 0.721219L48.0929 8.22122C48.8586 8.47643 49.375 9.19294 49.375 10C49.375 10.8071 48.8586 11.5236 48.0929 11.7788L25.5929 19.2788C25.2081 19.4071 24.7919 19.4071 24.4071 19.2788L1.90707 11.7788C1.14143 11.5236 0.625 10.8071 0.625 10C0.625 9.19294 1.14143 8.47643 1.90707 8.22122L24.4071 0.721219ZM8.42927 10L25 15.5236L41.5707 10L25 4.47642L8.42927 10Z" fill="white"/>
<path fill-rule="evenodd" clip-rule="evenodd" d="M16.5866 12.8826C17.3503 13.582 17.4025 14.768 16.7031 15.5317C15.2289 17.1416 14.2549 19.1457 13.8998 21.2996C13.5448 23.4534 13.824 25.6641 14.7035 27.662C15.583 29.6599 17.0248 31.3588 18.853 32.5515C20.6813 33.7443 22.8171 34.3787 25 34.3787C27.183 34.3787 29.3187 33.7443 31.147 32.5515C32.9753 31.3588 34.417 29.6599 35.2965 27.662C36.176 25.6641 36.4553 23.4534 36.1002 21.2996C35.7451 19.1457 34.7711 17.1416 33.2969 15.5317C32.5975 14.768 32.6497 13.582 33.4134 12.8826C34.1771 12.1833 35.3632 12.2355 36.0625 12.9992C38.0282 15.1457 39.3269 17.8178 39.8003 20.6896C40.2737 23.5614 39.9013 26.509 38.7287 29.1728C37.556 31.8367 35.6337 34.1019 33.196 35.6923C30.7583 37.2826 27.9106 38.1287 25 38.1287C22.0895 38.1287 19.2417 37.2826 16.804 35.6923C14.3663 34.1019 12.444 31.8367 11.2713 29.1728C10.0987 26.509 9.72635 23.5614 10.1998 20.6896C10.6732 17.8178 11.9719 15.1457 13.9375 12.9992C14.6369 12.2355 15.8229 12.1833 16.5866 12.8826Z" fill="white"/>
</svg>
